name C:\Users\u0101727\Documents\MyRepositories\paper-ad\trackingsimulations_3d\Results\TrackSim\IK_c17.mot
datacolumns 32
datarows 11
range 3.85000000 4.01000000
endheader
time	pelvis_tilt	pelvis_list	pelvis_rotation	pelvis_tx	pelvis_ty	pelvis_tz	hip_flexion_l	hip_adduction_l	hip_rotation_l	hip_flexion_r	hip_adduction_r	hip_rotation_r	knee_angle_l	knee_angle_r	ankle_angle_l	ankle_angle_r	subtalar_angle_l	subtalar_angle_r	lumbar_extension	lumbar_bending	lumbar_rotation	arm_flex_l	arm_add_l	arm_rot_l	arm_flex_r	arm_add_r	arm_rot_r	elbow_flex_l	elbow_flex_r	pro_sup_l	pro_sup_r	
          3.85000000	          0.29784174	         -3.01481219	          7.10748224	          0.02617092	          0.92245744	         -0.22396738	        -11.48189894	         -4.77621608	          1.36755272	         26.52009022	          4.43890318	         -7.54824734	        -36.10475364	        -22.75199047	         -4.20000301	         -5.99703969	         13.31862894	        -10.99675343	         -3.96084231	          5.51949722	         -8.62462288	         -1.76140812	        -14.53202033	         19.20555074	         -9.28540600	        -15.61447865	         14.50122384	         22.96749000	         11.48902966	         86.51662706	         86.51662706	
          3.86600000	          0.45815855	         -4.04847746	          6.93920343	          0.04988698	          0.92323422	         -0.22271524	         -9.51003352	         -6.01003265	          1.22684936	         25.60038133	          5.87466521	         -7.47650066	        -40.39212719	        -24.03059687	        -10.31037621	         -4.02067777	         11.94634355	        -11.16035327	         -3.76685324	          6.84799103	         -8.18983698	         -2.26163158	        -14.03068416	         19.48337831	         -9.06073766	        -15.91085591	         14.48156638	         21.88422786	         11.80788574	         86.51662706	         86.51662706	
          3.88200000	          0.65067115	         -4.89783829	          6.86066798	          0.07272961	          0.92455752	         -0.22171409	         -7.18572621	         -6.86081301	          1.79758378	         24.31534090	          7.06315582	         -7.50916581	        -44.73179886	        -24.71771448	        -15.46956891	         -2.01338635	         10.76030950	        -10.96401379	         -3.75252694	          7.95959792	         -7.77221744	         -2.62470334	        -13.59430014	         19.90543080	         -8.73024932	        -16.20631084	         14.34716939	         20.84074296	         12.32822009	         86.51662706	         86.51662706	
          3.89800000	          0.86103120	         -5.59222629	          6.87887291	          0.09463166	          0.92640084	         -0.22092973	         -4.54247540	         -7.37210572	          2.78885016	         22.75737704	          8.05017263	         -7.59951717	        -49.18170256	        -24.88508784	        -18.09104430	         -0.18866386	          9.73124889	        -10.59118600	         -3.89903231	          8.88228522	         -7.36006009	         -2.83831878	        -13.23931482	         20.47407545	         -8.31151787	        -16.50395359	         14.11779419	         19.88618131	         13.07745630	         86.51662706	         86.51662706	
          3.91400000	          1.08699111	         -6.11338711	          7.01512869	          0.11569352	          0.92880725	         -0.22036148	         -1.68991782	         -7.54646996	          4.01110119	         20.97982190	          8.82301453	         -7.73053724	        -53.41720303	        -24.61591706	        -19.11966152	          1.37679211	          8.04970653	        -10.11846690	         -4.17951345	          9.59162067	         -6.97785701	         -2.92680345	        -12.98446625	         21.15372104	         -7.84538768	        -16.80039548	         13.81829745	         19.06315966	         14.08640755	         86.51662706	         86.51662706	
          3.93000000	          1.30490324	         -6.40536037	          7.26798210	          0.13606782	          0.93176689	         -0.21998542	          1.34185155	         -7.34064178	          5.40135667	         19.05163332	          9.32683761	         -7.89045182	        -57.35107976	        -24.01939948	        -18.55358418	          2.70518354	          6.42580064	         -9.55192543	         -4.53863823	         10.01541327	         -6.64750434	         -2.93362165	        -12.84556067	         21.87223287	         -7.37084869	        -17.08336854	         13.47520834	         18.39465508	         15.36178934	         86.51662706	         86.51662706	
          3.94600000	          1.48292542	         -6.44790011	          7.58291452	          0.15595795	          0.93516663	         -0.21971199	          4.48639665	         -6.75981172	          6.79531790	         17.04278423	          9.55404320	         -8.05579788	        -60.80620833	        -23.19433910	        -16.80848445	          3.82647125	          5.06782557	         -8.89596929	         -4.90758887	         10.12090198	         -6.34711571	         -2.91873582	        -12.82294727	         22.53648238	         -6.91931586	        -17.34886323	         13.10945296	         17.90009463	         16.87657244	         86.51662706	         86.51662706	
          3.96200000	          1.59404658	         -6.25254984	          7.88168383	          0.17555294	          0.93883175	         -0.21943221	          7.66290255	         -5.85563206	          8.00699236	         15.01494195	          9.53105120	         -8.19435951	        -63.59122187	        -22.22626847	        -14.38635400	          4.76482702	          3.86928296	         -8.16965733	         -5.22960645	          9.91419972	         -6.02750405	         -2.93996839	        -12.90267330	         23.04612809	         -6.50636097	        -17.59957424	         12.73727228	         17.59557890	         18.57598236	         86.51662706	         86.51662706	
          3.97800000	          1.61874713	         -5.84600406	          8.05770209	          0.19498196	          0.94255448	         -0.21900039	         10.79633369	         -4.70903960	          8.88789357	         13.03416872	          9.30543899	         -8.22603419	        -65.57029202	        -21.20963794	        -11.82117618	          5.53274710	          3.01015993	         -7.44176481	         -5.47660063	          9.41854552	         -5.60070679	         -3.04120634	        -13.06389611	         23.30790216	         -6.13383789	        -17.84296883	         12.37286920	         17.49670560	         20.39910576	         86.51662706	         86.51662706	
          3.99400000	          1.55180820	         -5.27890203	          8.03897049	          0.21430824	          0.94611552	         -0.21833098	         13.81314978	         -3.43271819	          9.33120162	         11.15874726	          8.93112869	         -8.10200055	        -66.65651138	        -20.23303590	         -9.11519776	          6.15766875	          2.23398156	         -6.75614047	         -5.64313107	          8.69181128	         -5.00980283	         -3.24445100	        -13.27899503	         23.26485627	         -5.78637475	        -18.09386553	         12.02392075	         17.60413302	         22.28935799	         86.51662706	         86.51662706	
          4.01000000	          1.41221851	         -4.62063748	          7.80742024	          0.23355419	          0.94933917	         -0.21741835	         16.65087381	         -2.15795311	          9.33817026	          9.40855115	          8.46487307	         -7.82338028	        -66.78781147	        -19.34627551	         -6.52048567	          6.67678610	          1.52266726	         -6.10633777	         -5.74836972	          7.82297308	         -4.24969152	         -3.54497809	        -13.51553987	         22.91074222	         -5.43290999	        -18.37013584	         11.69419016	         17.89082324	         24.19533533	         86.51662706	         86.51662706	
